<svg width="59" height="59" viewBox="0 0 59 59" fill="none" xmlns="http://www.w3.org/2000/svg">
<g clip-path="url(#clip0_1_293)">
<path d="M58.3399 29.5698C58.3548 36.6117 55.8069 43.4184 51.1717 48.7197C46.5366 54.021 40.1308 57.4546 33.1499 58.3798C32.7771 58.4344 32.3968 58.408 32.0351 58.3023C31.6734 58.1967 31.3387 58.0142 31.054 57.7674C30.7692 57.5206 30.541 57.2153 30.385 56.8723C30.229 56.5292 30.1488 56.1566 30.1499 55.7798C30.1552 55.137 30.3948 54.5183 30.8238 54.0396C31.2527 53.561 31.8416 53.2552 32.4799 53.1798C38.1873 52.4032 43.4198 49.584 47.2076 45.2446C50.9954 40.9052 53.0817 35.3398 53.0799 29.5798C53.0773 28.2389 52.9602 26.9007 52.7299 25.5798C52.6149 24.9314 52.7473 24.2635 53.101 23.708C53.4546 23.1525 54.0038 22.7499 54.6399 22.5798C54.9921 22.4889 55.3593 22.4722 55.7182 22.531C56.0772 22.5898 56.4199 22.7226 56.7247 22.9211C57.0295 23.1196 57.2896 23.3793 57.4885 23.6838C57.6873 23.9883 57.8207 24.3309 57.8799 24.6898C58.1694 26.3007 58.3232 27.9331 58.3399 29.5698Z" fill="#52A8E5"/>
<path d="M51.3401 19.38C51.6385 20.0258 52.1812 20.5266 52.8488 20.7723C53.5164 21.018 54.2543 20.9884 54.9001 20.69C55.5459 20.3916 56.0467 19.8489 56.2924 19.1813C56.5381 18.5137 56.5085 17.7758 56.2101 17.13C53.823 12.0283 50.0357 7.70968 45.2893 4.67699C40.5429 1.64431 35.0326 0.0223616 29.4001 0H28.8001H27.8001C22.221 0.330989 16.8491 2.23209 12.3037 5.48409C7.75833 8.73609 4.22465 13.2065 2.11011 18.38C2.13355 18.9833 2.36003 19.561 2.75284 20.0196C3.14565 20.4781 3.68178 20.7905 4.27435 20.9062C4.86693 21.022 5.48122 20.9342 6.01769 20.6572C6.55416 20.3802 6.98138 19.9302 7.23011 19.38C9.20392 15.1998 12.3251 11.6666 16.2299 9.19211C20.1347 6.71766 24.6623 5.40389 29.2851 5.40389C33.9079 5.40389 38.4355 6.71766 42.3403 9.19211C46.2451 11.6666 49.3663 15.1998 51.3401 19.38Z" fill="url(#paint0_linear_1_293)"/>
<path d="M26.11 53.1302C22.906 52.7028 19.8214 51.6325 17.0412 49.9837C14.2609 48.3348 11.8424 46.1414 9.93077 43.5349C8.01909 40.9284 6.65363 37.9626 5.91632 34.8154C5.179 31.6683 5.08502 28.4046 5.64001 25.2202C5.76627 24.5593 5.63735 23.875 5.27922 23.3054C4.92109 22.7357 4.36036 22.3229 3.71001 22.1502C3.35334 22.0609 2.98207 22.0463 2.61948 22.1072C2.25688 22.1681 1.91078 22.3033 1.60285 22.5042C1.29492 22.7051 1.0318 22.9674 0.829981 23.2747C0.628164 23.5821 0.491996 23.9278 0.430012 24.2902C0.145684 25.9417 0.00183522 27.6144 1.20102e-05 29.2902C-0.0064205 36.4006 2.57121 43.271 7.25304 48.6225C11.9349 53.9739 18.4018 57.4417 25.45 58.3802C25.7941 58.4235 26.1433 58.3987 26.4778 58.307C26.8122 58.2154 27.1254 58.0588 27.3993 57.8462C27.6732 57.6335 27.9026 57.369 28.0743 57.0677C28.246 56.7664 28.3567 56.4343 28.4 56.0902C28.4433 55.7461 28.4185 55.3969 28.3269 55.0624C28.2352 54.728 28.0786 54.4149 27.866 54.1409C27.6533 53.867 27.3888 53.6376 27.0875 53.4659C26.7862 53.2942 26.4541 53.1835 26.11 53.1402V53.1302Z" fill="url(#paint1_linear_1_293)"/>
</g>
<defs>
<linearGradient id="paint0_linear_1_293" x1="2.11011" y1="10.48" x2="56.5101" y2="10.48" gradientUnits="userSpaceOnUse">
<stop stop-color="#48E0D8"/>
<stop offset="1" stop-color="#637DF4"/>
</linearGradient>
<linearGradient id="paint1_linear_1_293" x1="1.20102e-05" y1="40.2302" x2="28.46" y2="40.2302" gradientUnits="userSpaceOnUse">
<stop stop-color="#48E0D8"/>
<stop offset="1" stop-color="#637DF4"/>
</linearGradient>
<clipPath id="clip0_1_293">
<rect width="58.34" height="58.4" fill="white"/>
</clipPath>
</defs>
</svg>
